<svg id="Layer_1" data-name="Layer 1" xmlns="http://www.w3.org/2000/svg" viewBox="0 0 92.02 100.37"><defs><style>.cls-1{fill:#231f20;}</style></defs><title>Natural Features</title><path class="cls-1" d="M345.44,375.79a179.77,179.77,0,0,1-9.33,26.58c-6.33,14-15.4,30.26-31.69,33.86-7.45,1.65-16.91,1-17.19-8-.33-10.62,8.56-23.6,14.71-31.6a213.87,213.87,0,0,1,24.73-26.81c8.12-7.48,17.26-18.21,27.55-22.43.43-.14.59-.09.75-.9-29-2-56.61,4.72-77.72,25.72a47.26,47.26,0,0,0-5.3,61.62,5.79,5.79,0,0,1,.57.1c1.11-14.3,6.48-14.19,5.4-18.56-1.35-5.45-5.16-8.85-5.3-14.71-.28-11.8,4.56-19.36,12.54-27.5,14.44-14.74,37.44-25.32,58.29-24.23-12.75,10-14.29,8.86-29.36,23.82C308,378.89,299,388.23,292,396.7s-25,44.31-5.9,48.71c10.82,2.49,19.3,1,29.33-5,8.35-5,13.86-12.22,18.17-20.8a192.3,192.3,0,0,0,13.23-33.27c1.84-6.39,3.45-12.84,5.14-19.28.87-3.3,2.8-10.19,2.8-13.59C347.27,357.13,347,370.17,345.44,375.79Z" transform="translate(-262.95 -346.18)"/></svg>